<?xml version="1.0" encoding="utf-8"?>
<!-- Generator: Adobe Illustrator 24.1.0, SVG Export Plug-In . SVG Version: 6.00 Build 0)  -->
<svg version="1.1" id="レイヤー_1" xmlns="http://www.w3.org/2000/svg" xmlns:xlink="http://www.w3.org/1999/xlink" x="0px"
	 y="0px" viewBox="0 0 237 139" style="enable-background:new 0 0 237 139;" xml:space="preserve">
<style type="text/css">
	.st0{fill:#221E1F;}
	.st1{clip-path:url(#SVGID_2_);fill:#221E1F;}
</style>
<g>
	<rect x="81.64" y="110.42" class="st0" width="73.71" height="0.98"/>
	<g>
		<defs>
			<rect id="SVGID_1_" width="237" height="138.55"/>
		</defs>
		<clipPath id="SVGID_2_">
			<use xlink:href="#SVGID_1_"  style="overflow:visible;"/>
		</clipPath>
		<path class="st1" d="M73.03,29.99c4.7,4.92,7.19,7.61,8.9,10.01c8-0.58,21.53-0.83,36.57-0.83c15.04,0,28.57,0.25,36.57,0.83
			c1.71-2.4,4.2-5.09,8.9-10.01c6.05-6.34,11.26-9.99,11.26-9.99s-5.61-3.93-11.26-9.99c-4.64-4.98-7.19-7.61-8.9-10.01
			c-8,0.59-21.53,0.84-36.57,0.84c-11.86,0-22.78-0.15-30.79-0.51c-2.15-0.09-4.09-0.2-5.78-0.33c-1.71,2.4-4.26,5.03-8.9,10.01
			C67.38,16.07,61.77,20,61.77,20S66.98,23.65,73.03,29.99"/>
		<path class="st1" d="M164.81,76.7c-1.49-1.44-3.52-2.17-6.07-2.17c-3.41,0.05-5.83,1.29-7.27,3.72c-0.75,1.27-1.12,2.69-1.12,4.22
			c0,1.05,0.18,2.05,0.55,3c0.41,1.08,1.02,2.01,1.83,2.78c1.49,1.44,3.5,2.17,6.04,2.17c3.38,0,5.8-1.24,7.28-3.74
			c0.76-1.27,1.14-2.65,1.14-4.11C167.18,80.18,166.39,78.22,164.81,76.7 M158.71,87.53c-2.85,0-5.16-2.25-5.16-5.03
			c0-2.78,2.31-5.03,5.16-5.03c2.85,0,5.16,2.25,5.16,5.03C163.87,85.28,161.56,87.53,158.71,87.53"/>
		<path class="st1" d="M60.95,77.24c-0.28-0.62-0.66-1.12-1.15-1.51c-0.48-0.36-1.03-0.62-1.66-0.78c-0.62-0.15-1.47-0.22-2.53-0.22
			h-8.77v0.17c0.07,0.06,0.13,0.12,0.17,0.18c0.1,0.12,0.15,0.41,0.15,0.64v13.27v0.21c0,0.22-0.07,0.45-0.15,0.58
			c-0.04,0.07-0.09,0.15-0.17,0.22v0.15h3.84v-0.17c-0.08-0.07-0.14-0.15-0.18-0.19c-0.1-0.13-0.15-0.38-0.15-0.6v-1.09v-4.25h5.25
			c1.35,0,2.4-0.14,3.15-0.42c0.76-0.29,1.36-0.76,1.82-1.43c0.53-0.78,0.79-1.68,0.79-2.73C61.36,78.57,61.23,77.89,60.95,77.24
			 M57.27,80.68c-0.47,0.24-1.08,0.33-2.05,0.33h-4.88v-3.52h4.88c0.98,0,1.54,0.06,2.05,0.32c0.36,0.18,0.83,0.7,0.83,1.48
			C58.11,80.07,57.64,80.49,57.27,80.68"/>
		<path class="st1" d="M96.55,74.98v-0.17h-4.28v0.15c0.07,0.06,0.14,0.13,0.21,0.22c0.1,0.12,0.13,0.4,0.13,0.62v13.18
			c0,0.44-0.03,0.57-0.11,0.75c-0.03,0.06-0.14,0.23-0.2,0.28v0.16h3.84v-0.17c-0.08-0.07-0.15-0.16-0.19-0.22
			c-0.1-0.14-0.15-0.42-0.13-0.79l0-9.04l7.93,8.59c0.35,0.37,0.48,0.65,0.55,0.78c0.19,0.37,0.04,0.58-0.1,0.69v0.16h3.87v-0.17
			c-0.07-0.07-0.18-0.19-0.23-0.29c-0.09-0.19-0.09-0.48-0.09-0.72V75.77c0-0.22,0.07-0.45,0.15-0.58c0.02-0.04,0.04-0.07,0.07-0.11
			c0,0,0,0,0,0c0.03-0.04,0.06-0.08,0.1-0.12v-0.16h-1.9h-1.9v0.17c0.07,0.07,0.14,0.15,0.18,0.19c0.1,0.12,0.15,0.38,0.15,0.6v9.07
			l-7.84-8.56c-0.29-0.38-0.38-0.62-0.35-0.96C96.39,75.17,96.44,75.06,96.55,74.98"/>
		<path class="st1" d="M9.49,74.92c0.09,0.07,0.14,0.14,0.19,0.2c0.1,0.12,0.15,0.38,0.15,0.62v8.67c0,1.6-0.38,2.26-1.46,2.68
			c-0.45,0.17-1.4,0.26-1.87,0.24c-1.11-0.04-2.34-0.53-2.85-1.07c-0.22-0.23-0.75-0.83-0.56-1.11l-0.08-0.16L0,86.55l0.07,0.15
			c0.08-0.02,0.16,0.05,0.21,0.07c0.14,0.08,0.34,0.46,0.51,0.7c0.28,0.41,0.59,0.75,1.03,1.16c1.31,1.2,3.11,1.57,4.86,1.61h0.19
			c2.21-0.03,3.66-0.59,4.55-1.31c0.76-0.62,1.12-1.31,1.33-1.81c0.2-0.48,0.26-1.04,0.27-1.62c0.01-0.27,0-1.23,0-1.22v-8.61
			c0-0.23,0.05-0.42,0.13-0.55c0.05-0.09,0.11-0.14,0.18-0.2v-0.18H9.49V74.92z"/>
		<path class="st1" d="M138.33,74.92c0.07,0.07,0.14,0.15,0.18,0.19c0.1,0.13,0.15,0.38,0.15,0.6v1.09h0v3.82h-8.43V75.9v-0.19
			c0-0.22,0.07-0.46,0.15-0.59c0.04-0.07,0.09-0.15,0.17-0.22v-0.16h-3.84v0.17c0.07,0.07,0.14,0.15,0.17,0.19
			c0.1,0.13,0.15,0.38,0.15,0.6v0.19v0v12.2h0v1.09c0,0.22-0.07,0.46-0.15,0.59c-0.04,0.07-0.09,0.15-0.17,0.22v0.16h3.84v-0.17
			c-0.07-0.07-0.14-0.15-0.18-0.2c-0.1-0.12-0.15-0.38-0.15-0.6V89c0,0,0,0,0,0v-5.48h8.43v4.59h0v1.09c0,0.22-0.07,0.46-0.15,0.59
			c-0.04,0.07-0.09,0.15-0.17,0.22v0.16h3.84v-0.17c-0.07-0.07-0.14-0.15-0.18-0.2c-0.1-0.12-0.15-0.38-0.15-0.6v-0.2h0V75.9v-0.19
			c0-0.22,0.07-0.46,0.15-0.59c0.04-0.07,0.09-0.15,0.17-0.22v-0.16h-3.84V74.92z"/>
		<path class="st1" d="M212.47,82.56c-0.64-0.46-1.61-0.83-2.89-1.1l-2.93-0.63c-1.13-0.24-2.23-0.45-2.58-0.62
			c-0.54-0.26-0.88-0.66-0.87-1.21c0.01-0.85,0.74-1.93,3.41-1.91c1.01,0.01,1.91,0.17,2.82,0.43c0.43,0.12,1.42,0.42,1.82,0.83
			c0.16,0.17,0.19,0.26,0.19,0.52l0.14,0.07l1.62-3.05l-0.14-0.08c-0.06,0.02-0.14,0.06-0.35,0.04c-0.21-0.01-0.59-0.21-0.98-0.36
			c-0.5-0.19-1.06-0.37-1.06-0.37c-0.89-0.3-2.69-0.6-3.78-0.61c-2.62-0.02-4.14,0.6-5.09,1.35c-1.12,0.87-1.65,2.02-1.65,3.37
			c0,1.48,0.65,2.46,1.49,3.04c0.75,0.51,2.32,1.03,4.09,1.39l1.81,0.36c1.06,0.21,2.02,0.44,2.51,0.71
			c0.49,0.27,0.73,0.66,0.73,1.16c0,0.85-0.69,1.21-1.68,1.51c-0.52,0.17-1.19,0.24-2.05,0.25c-0.86,0.01-1.99-0.21-2.71-0.41
			c-0.64-0.18-1.35-0.43-1.9-0.65c-0.54-0.22-0.82-0.47-0.93-0.59c-0.09-0.09-0.12-0.16-0.14-0.29l-0.15-0.06l-1.36,3.23l0.15,0.07
			c0.05-0.03,0.1-0.05,0.21-0.07c0.24-0.03,0.56,0.07,0.93,0.25c0,0,1.36,0.59,2.29,0.84c0.93,0.25,2.09,0.49,3.73,0.49
			c2.49,0,4.04-0.63,5.01-1.37c1.18-0.9,1.77-2.06,1.77-3.44C213.97,84.3,213.47,83.27,212.47,82.56"/>
		<path class="st1" d="M186.84,74.99c0.07,0.07,0.14,0.14,0.17,0.19c0.1,0.13,0.15,0.38,0.15,0.6v1.09v6.55
			c0,0.89-0.05,1.54-0.14,1.96c-0.09,0.42-0.27,0.78-0.53,1.07c-0.68,0.77-1.85,1.14-3.51,1.14c-1.65,0-2.82-0.38-3.51-1.14
			c-0.26-0.28-0.44-0.64-0.53-1.07c-0.09-0.42-0.14-1.07-0.14-1.96v-7.43v0v-0.21c0-0.22,0.07-0.46,0.15-0.59
			c0.04-0.07,0.09-0.15,0.17-0.22v-0.15h-3.83v0.17c0.07,0.07,0.14,0.14,0.17,0.19c0.1,0.13,0.15,0.38,0.15,0.6v0.2c0,0,0,0,0,0.01
			v8.6c0,1.08,0.14,2.01,0.41,2.79c0.28,0.79,0.78,1.41,1.5,1.87c1.23,0.79,3.01,1.18,5.35,1.18h0.22c2.33,0,4.11-0.39,5.35-1.18
			c0.72-0.46,1.22-1.08,1.5-1.87c0.27-0.78,0.41-1.71,0.41-2.79v-7.73v-1.09c0-0.22,0.07-0.46,0.15-0.59
			c0.04-0.07,0.09-0.15,0.17-0.22v-0.15h-3.83V74.99z"/>
		<path class="st1" d="M236.83,87.29c-0.07,0.08-0.15,0.14-0.19,0.18c-0.13,0.1-0.38,0.15-0.6,0.15h-0.14l0,0h-9.41v-4h8.08l0,0
			h0.14c0.22,0,0.46,0.07,0.59,0.15c0.07,0.04,0.15,0.09,0.22,0.17h0.16l0-3.45h-0.17c-0.07,0.07-0.15,0.14-0.19,0.17
			c-0.13,0.1-0.38,0.15-0.6,0.15h-0.15c0,0,0,0,0,0h-8.08v-3.49h9.16l0,0h0.14c0.22,0,0.46,0.07,0.59,0.15
			c0.07,0.04,0.15,0.09,0.22,0.17h0.16v-3.18h-0.17c-0.07,0.07-0.15,0.14-0.2,0.18c-0.12,0.1-0.38,0.15-0.6,0.15h-0.14l0,0h-12.68
			v0.17c0.07,0.06,0.12,0.13,0.18,0.21c0.1,0.13,0.15,0.36,0.15,0.81v13c0,0.47-0.05,0.62-0.12,0.76c-0.05,0.08-0.12,0.19-0.2,0.25
			v0.17h12.93l0,0h0.14c0.22,0,0.46,0.07,0.59,0.15c0.07,0.04,0.15,0.09,0.22,0.17H237l0-3.18H236.83z"/>
		<path class="st1" d="M78.78,86.22l1.04,2.27c0.21,0.39,0.24,0.72,0.2,0.96c-0.04,0.24-0.22,0.42-0.33,0.53v0.15h4.59v-0.17
			c-0.1-0.03-0.29-0.26-0.4-0.41c-0.14-0.21-0.34-0.68-0.55-1.17l-5.57-11.84c-0.14-0.27-0.21-0.67-0.24-0.85
			c-0.01-0.19-0.03-0.34-0.02-0.47c0-0.02,0-0.03,0-0.05c0-0.01,0-0.01,0-0.02c0.01-0.06,0.02-0.11,0.04-0.15
			c0.01-0.03,0.03-0.06,0.05-0.08v-0.15h-4.01v0.17c0.02,0.02,0.04,0.05,0.05,0.07c0.05,0.11,0.06,0.28,0.05,0.46
			c-0.01,0.07-0.01,0.15-0.03,0.24c-0.01,0.06-0.02,0.14-0.04,0.22c0,0,0,0.01,0,0.01c-0.01,0.07-0.03,0.14-0.05,0.22
			c-0.01,0.03-0.02,0.06-0.02,0.09c-0.02,0.07-0.04,0.13-0.06,0.2c-0.01,0.02-0.01,0.04-0.02,0.07c-0.03,0.09-0.06,0.18-0.1,0.26
			l-5.1,11.19l-0.28,0.62c0,0,0,0,0,0.01c-0.18,0.39-0.39,0.85-0.47,0.96c-0.11,0.15-0.3,0.38-0.4,0.41v0.17h4.11v-0.15
			c-0.22-0.24-0.33-0.51-0.3-0.83c0.02-0.17,0.09-0.42,0.21-0.72l0.2-0.46h0l0.8-1.75H78.78z M75.49,78.65l2.13,4.92h-4.29
			L75.49,78.65z"/>
		<path class="st1" d="M38.06,89.55c-0.14-0.21-0.34-0.68-0.55-1.17l-5.57-11.84c-0.14-0.27-0.21-0.67-0.24-0.85
			c-0.01-0.18-0.02-0.33-0.02-0.46c0.01-0.09,0.02-0.17,0.05-0.23c0.01-0.03,0.03-0.06,0.05-0.08v-0.15h-4.01v0.17
			c0.02,0.02,0.04,0.05,0.05,0.07c0.06,0.11,0.06,0.29,0.05,0.46c-0.01,0.07-0.01,0.15-0.02,0.23c-0.02,0.13-0.05,0.3-0.1,0.49
			c0,0,0,0.01,0,0.01c-0.02,0.09-0.05,0.18-0.08,0.26c0,0.01-0.01,0.02-0.01,0.03c-0.03,0.09-0.07,0.18-0.1,0.27l-5.1,11.19
			l-0.28,0.62c0,0,0,0,0,0.01c-0.18,0.39-0.39,0.85-0.47,0.96c-0.11,0.15-0.3,0.38-0.4,0.41v0.18h4.11v-0.15
			c-0.22-0.24-0.33-0.51-0.3-0.83c0.02-0.17,0.09-0.42,0.21-0.72l0.2-0.46h0l0.79-1.75h6.65l1.04,2.27c0.2,0.39,0.24,0.72,0.2,0.96
			c-0.04,0.24-0.21,0.42-0.32,0.53v0.15h4.58v-0.18C38.36,89.93,38.17,89.7,38.06,89.55 M27.5,83.56l2.16-4.92l2.13,4.92H27.5z"/>
		<path class="st1" d="M68.41,131.82l1.11-2.18l-0.19-0.1c-0.13,0.1-0.24,0.16-0.33,0.16c-0.06,0-0.22-0.05-0.48-0.16
			c-0.76-0.32-1.4-0.54-1.91-0.67c-0.51-0.12-1.06-0.18-1.66-0.18c-1.41,0-2.47,0.34-3.18,1.01c-0.54,0.51-0.81,1.16-0.81,1.94
			c0,0.47,0.11,0.9,0.32,1.26c0.24,0.41,0.56,0.71,0.97,0.92c0.29,0.15,0.58,0.25,0.87,0.32c0.29,0.07,0.78,0.13,1.49,0.21
			l1.05,0.11c0.7,0.08,1.17,0.16,1.4,0.25c0.33,0.13,0.5,0.35,0.5,0.66c0,0.2-0.07,0.4-0.21,0.59c-0.14,0.19-0.33,0.34-0.56,0.45
			c-0.43,0.2-0.94,0.3-1.54,0.3c-0.55,0-1.14-0.1-1.75-0.29c-0.62-0.19-1.07-0.42-1.37-0.68c-0.19-0.17-0.29-0.36-0.29-0.56v-0.09
			l-0.2-0.1l-1.01,2.27l0.2,0.1c0.13-0.1,0.22-0.15,0.28-0.15c0.05,0,0.2,0.06,0.46,0.18c1.19,0.59,2.4,0.88,3.63,0.88
			c0.68,0,1.32-0.08,1.92-0.25c0.8-0.22,1.39-0.56,1.77-1.02c0.42-0.51,0.63-1.08,0.63-1.74c0-0.41-0.09-0.8-0.27-1.16
			c-0.18-0.36-0.42-0.65-0.73-0.88c-0.3-0.21-0.65-0.38-1.04-0.5c-0.39-0.12-0.9-0.21-1.54-0.28l-1.07-0.11
			c-0.72-0.07-1.18-0.14-1.4-0.2c-0.42-0.13-0.63-0.37-0.63-0.71c0-0.21,0.08-0.41,0.25-0.59c0.17-0.18,0.38-0.32,0.65-0.41
			c0.37-0.12,0.79-0.17,1.27-0.17c1.09,0,2.03,0.28,2.84,0.84c0.26,0.18,0.39,0.34,0.39,0.5c0,0.03,0,0.06-0.01,0.11L68.41,131.82z"
			/>
		<path class="st1" d="M83.64,137.06l-3.53-7.14c-0.09-0.17-0.13-0.32-0.13-0.45c0-0.19,0.13-0.32,0.4-0.4v-0.22H77.1v0.22
			c0.26,0.09,0.39,0.24,0.39,0.45c0,0.14-0.05,0.32-0.16,0.54l-3.41,7.12c-0.12,0.26-0.23,0.44-0.33,0.53
			c-0.09,0.09-0.23,0.15-0.41,0.19v0.22h3.06v-0.22c-0.3-0.08-0.45-0.21-0.45-0.41c0-0.1,0.04-0.25,0.13-0.43l0.62-1.3h4.21
			l0.63,1.3c0.09,0.18,0.14,0.33,0.14,0.42c0,0.23-0.15,0.37-0.45,0.42v0.22h3.41v-0.22c-0.19-0.04-0.34-0.11-0.46-0.22
			C83.92,137.57,83.79,137.36,83.64,137.06 M77.15,134.48l1.53-3.3l1.5,3.3H77.15z"/>
		<path class="st1" d="M92.88,128.69c-2.15,0.03-3.69,0.78-4.6,2.25c-0.48,0.77-0.71,1.62-0.71,2.54c0,0.63,0.12,1.24,0.35,1.81
			c0.26,0.65,0.65,1.21,1.15,1.68c0.95,0.87,2.22,1.31,3.82,1.31c2.14,0,3.67-0.75,4.61-2.25c0.48-0.77,0.72-1.6,0.72-2.49
			c0-1.45-0.5-2.63-1.5-3.54C95.77,129.12,94.49,128.69,92.88,128.69 M95.91,134.77c-0.19,0.45-0.45,0.83-0.8,1.15
			c-0.58,0.52-1.32,0.79-2.22,0.79c-0.89,0-1.63-0.26-2.22-0.79c-0.7-0.62-1.05-1.43-1.05-2.44c0-1,0.35-1.82,1.05-2.43
			c0.59-0.52,1.32-0.79,2.21-0.79c0.89,0.01,1.64,0.27,2.23,0.79c0.7,0.6,1.05,1.43,1.05,2.48
			C96.16,133.95,96.08,134.37,95.91,134.77"/>
		<path class="st1" d="M118.82,129.45c-0.3-0.22-0.65-0.38-1.05-0.47c-0.4-0.09-0.93-0.14-1.6-0.14h-5.79v0.22
			c0.16,0.04,0.28,0.1,0.34,0.17c0.06,0.07,0.09,0.18,0.09,0.32v7.85c0,0.14-0.03,0.24-0.09,0.31c-0.06,0.07-0.18,0.13-0.34,0.18
			v0.22h2.89v-0.22c-0.16-0.04-0.27-0.1-0.34-0.17c-0.07-0.07-0.1-0.18-0.1-0.32v-3.05h3.33c0.85,0,1.52-0.08,2-0.25
			c0.48-0.17,0.86-0.45,1.15-0.86c0.33-0.47,0.5-1.02,0.5-1.64c0-0.43-0.09-0.85-0.27-1.24
			C119.37,129.99,119.13,129.68,118.82,129.45 M117.6,132.22c-0.1,0.19-0.23,0.32-0.38,0.41c-0.25,0.13-0.68,0.2-1.3,0.2h-3.09
			v-2.45h3.09c0.62,0,1.05,0.07,1.3,0.2c0.16,0.09,0.29,0.22,0.38,0.41c0.1,0.19,0.15,0.39,0.15,0.62
			C117.75,131.82,117.7,132.03,117.6,132.22"/>
		<path class="st1" d="M133.75,137.06l-3.53-7.14c-0.09-0.17-0.13-0.32-0.13-0.45c0-0.19,0.13-0.32,0.4-0.4v-0.22h-3.29v0.22
			c0.26,0.09,0.39,0.24,0.39,0.45c0,0.14-0.05,0.32-0.16,0.54l-3.41,7.12c-0.12,0.26-0.23,0.44-0.33,0.53
			c-0.09,0.09-0.23,0.15-0.41,0.19v0.22h3.07v-0.22c-0.3-0.08-0.45-0.21-0.45-0.41c0-0.1,0.04-0.25,0.13-0.43l0.62-1.3h4.21
			l0.64,1.3c0.09,0.18,0.14,0.33,0.14,0.42c0,0.23-0.15,0.37-0.45,0.42v0.22h3.41v-0.22c-0.19-0.04-0.34-0.11-0.46-0.22
			C134.03,137.57,133.9,137.36,133.75,137.06 M127.25,134.48l1.53-3.3l1.5,3.3H127.25z"/>
		<path class="st1" d="M145.58,129.07c0.16,0.04,0.28,0.1,0.34,0.18c0.06,0.07,0.1,0.18,0.1,0.32v4.62c0,0.53-0.03,0.93-0.09,1.18
			c-0.06,0.26-0.17,0.47-0.33,0.64c-0.43,0.46-1.18,0.69-2.23,0.69c-1.05,0-1.79-0.23-2.23-0.69c-0.16-0.17-0.27-0.38-0.33-0.64
			c-0.06-0.26-0.09-0.65-0.09-1.18v-4.62c0-0.14,0.03-0.25,0.1-0.32c0.06-0.07,0.18-0.13,0.34-0.17v-0.22h-2.89v0.22
			c0.16,0.04,0.27,0.1,0.34,0.18c0.06,0.07,0.1,0.18,0.1,0.32v5.19c0,0.65,0.09,1.21,0.26,1.68c0.18,0.47,0.49,0.85,0.95,1.12
			c0.78,0.48,1.91,0.71,3.39,0.71c2.04,0,3.39-0.44,4.04-1.32c0.36-0.49,0.54-1.22,0.54-2.21v-5.19c0-0.14,0.03-0.25,0.1-0.32
			c0.06-0.07,0.18-0.13,0.34-0.18v-0.22h-2.73V129.07z"/>
		<path class="st1" d="M161.87,136.49c-0.07,0.06-0.18,0.1-0.32,0.1h-5.7v-7.03c0-0.14,0.03-0.25,0.1-0.32
			c0.06-0.07,0.18-0.13,0.34-0.17v-0.22h-2.89v0.22c0.16,0.04,0.28,0.1,0.34,0.17c0.06,0.07,0.1,0.18,0.1,0.32v7.84
			c0,0.14-0.03,0.24-0.1,0.32c-0.06,0.07-0.18,0.13-0.34,0.18v0.22h8.15c0.14,0,0.25,0.03,0.32,0.1c0.07,0.07,0.13,0.18,0.17,0.34
			h0.22v-2.4h-0.22C162,136.32,161.94,136.43,161.87,136.49"/>
		<path class="st1" d="M171.39,128.69c-2.15,0.03-3.69,0.78-4.6,2.25c-0.48,0.77-0.71,1.62-0.71,2.54c0,0.63,0.12,1.24,0.35,1.81
			c0.26,0.65,0.65,1.21,1.16,1.68c0.95,0.87,2.22,1.31,3.82,1.31c2.14,0,3.67-0.75,4.61-2.25c0.48-0.77,0.72-1.6,0.72-2.49
			c0-1.45-0.5-2.63-1.5-3.54C174.29,129.12,173,128.69,171.39,128.69 M174.43,134.77c-0.19,0.45-0.45,0.83-0.8,1.15
			c-0.58,0.52-1.32,0.79-2.22,0.79c-0.89,0-1.63-0.26-2.22-0.79c-0.7-0.62-1.05-1.43-1.05-2.44c0-1,0.35-1.82,1.05-2.43
			c0.59-0.52,1.32-0.79,2.21-0.79c0.89,0.01,1.63,0.27,2.23,0.79c0.7,0.6,1.05,1.43,1.05,2.48
			C174.67,133.95,174.59,134.37,174.43,134.77"/>
		<path class="st1" d="M80.78,125.73c-0.21,0.11-0.76,0.13-1.17,0.06c-0.69-0.12-1.14-0.4-1.6-0.5c-0.34-0.07-0.79-0.12-1.17-0.04
			c-0.43,0.08-0.83,0.44-1,0.68c-0.13,0.2-0.22,0.43-0.28,0.64l0.69,0.37c0.11-0.18,0.32-0.42,0.44-0.49
			c0.31-0.21,0.61-0.2,1.13-0.06c0.68,0.19,0.9,0.33,1.55,0.47c0.65,0.14,1.28,0.09,1.63-0.03c0.46-0.16,0.78-0.53,0.94-0.87
			c0.05-0.1,0.09-0.23,0.12-0.35l-0.74-0.4C81.23,125.39,81.05,125.6,80.78,125.73"/>
	</g>
</g>
</svg>
